<?xml version="1.0" encoding="UTF-8"?>
<svg width="562px" height="214px" viewBox="0 0 562 214" version="1.1" xmlns="http://www.w3.org/2000/svg" xmlns:xlink="http://www.w3.org/1999/xlink">
    <title>Group 56</title>
    <defs>
        <polygon id="path-1" points="0 0.9207 121.9486 0.9207 121.9486 82.0057 0 82.0057"></polygon>
        <polygon id="path-3" points="0.0677 0.871 66.8907 0.871 66.8907 114.0058 0.0677 114.0058"></polygon>
        <polygon id="path-5" points="0.109 -0.0033 77.187 -0.0033 77.187 115.0557 0.109 115.0557"></polygon>
        <polygon id="path-7" points="0.1155 0.6571 23.1395 0.6571 23.1395 35 0.1155 35"></polygon>
        <polygon id="path-9" points="0.4817 0.6571 23.5047 0.6571 23.5047 35 0.4817 35"></polygon>
    </defs>
    <g id="Page-1" stroke="none" stroke-width="1" fill="none" fill-rule="evenodd">
        <g id="Group-56">
            <g id="Group-3" transform="translate(0.000000, 32.129000)">
                <mask id="mask-2" fill="white">
                    <use xlink:href="#path-1"></use>
                </mask>
                <g id="Clip-2"></g>
                <path d="M0.3206,6.8497 C0.1606,6.0487 -0.0004,5.4077 -0.0004,4.9267 C-0.0004,3.9647 0.3206,3.1637 0.8006,2.5227 C1.6026,1.4007 2.8846,0.9207 4.8076,0.9207 L10.0956,0.9207 C13.3006,0.9207 15.2236,2.3627 16.0256,5.4077 L31.8896,57.8077 L33.8126,66.4617 L34.1336,66.4617 C34.7736,63.4167 35.5746,60.5327 36.3766,57.8077 L52.7216,5.5677 C53.3626,2.5227 55.2856,1.0807 58.4906,1.0807 L63.4586,1.0807 C66.6626,1.0807 68.5866,2.5227 69.3876,5.5677 L85.7326,57.8077 L87.8156,66.4617 L88.1366,66.4617 C88.6166,63.4167 89.4186,60.5327 90.2196,57.8077 L106.0846,5.4077 C106.7246,2.3627 108.6476,0.9207 111.8526,0.9207 L117.1416,0.9207 C119.0646,0.9207 120.5066,1.4007 121.3076,2.5227 C121.7886,3.1637 121.9486,3.9647 121.9486,4.9267 C121.9486,5.4077 121.7886,6.0487 121.6286,6.8497 L98.7126,77.5177 C97.9116,80.5627 95.9886,82.0057 92.7836,82.0057 L84.9316,82.0057 C81.7266,82.0057 79.8036,80.5627 79.0026,77.5177 L63.4586,29.9247 L61.2146,21.1117 L60.8946,21.1117 C60.2536,24.1567 59.4516,27.2007 58.4906,29.9247 L43.1066,77.5177 C42.3056,80.5627 40.3826,82.0057 37.1776,82.0057 L29.1656,82.0057 C25.9606,82.0057 24.0376,80.5627 23.2366,77.5177 L0.3206,6.8497 Z" id="Fill-1" fill="#007EC5" mask="url(#mask-2)"></path>
            </g>
            <path d="M241.6555,38.3376 C241.6555,34.8126 243.4175,33.0496 246.9435,33.0496 L251.4305,33.0496 C254.9555,33.0496 256.7185,34.8126 256.7185,38.3376 L256.7185,47.6316 L256.2385,53.7216 L256.5585,53.7216 C260.4045,42.0236 269.8585,32.4086 281.3975,32.4086 C284.7615,32.4086 286.5245,34.1706 286.5245,37.6966 L286.5245,42.1836 C286.5245,45.7086 284.6015,47.4716 280.7555,47.4716 C273.2245,47.4716 267.4545,50.8366 263.2895,57.5666 C259.2825,64.1376 257.1985,71.8296 257.1985,80.6426 L257.1985,108.8466 C257.1985,112.3716 255.4375,114.1346 251.9115,114.1346 L246.9435,114.1346 C243.4175,114.1346 241.6555,112.3716 241.6555,108.8466 L241.6555,38.3376 Z" id="Fill-4" fill="#007EC5"></path>
            <g id="Group-8" transform="translate(302.000000, 0.129000)">
                <mask id="mask-4" fill="white">
                    <use xlink:href="#path-3"></use>
                </mask>
                <g id="Clip-7"></g>
                <path d="M0.0677,6.1588 C0.0677,2.6338 1.8307,0.8708 5.3557,0.8708 L10.3237,0.8708 C13.6887,0.8708 15.4507,2.6338 15.4507,6.1588 L15.4507,62.5658 L27.1497,62.5658 L46.8597,36.2848 C48.3017,34.0418 50.3847,32.9208 53.1097,32.9208 L59.0387,32.9208 C63.3657,32.9208 64.8077,35.9648 62.2437,39.3298 L39.8087,68.6558 L39.8087,68.9758 L65.7687,107.5958 C66.5707,108.7178 66.8907,109.8398 66.8907,110.6398 C66.8907,111.1208 66.7297,111.6018 66.5707,112.0828 C65.7687,113.3648 64.3267,114.0058 62.2437,114.0058 L55.8337,114.0058 C53.1097,114.0058 51.0257,112.7228 49.5847,110.3198 L27.4697,76.0268 L15.4507,76.0268 L15.4507,108.7178 C15.4507,112.2428 13.6887,114.0058 10.3237,114.0058 L5.3557,114.0058 C1.8307,114.0058 0.0677,112.2428 0.0677,108.7178 L0.0677,6.1588 Z" id="Fill-6" fill="#007EC5" mask="url(#mask-4)"></path>
            </g>
            <path d="M385.7161,38.3376 C385.7161,34.8126 387.4791,33.0496 391.0041,33.0496 L395.9721,33.0496 C399.3371,33.0496 401.1001,34.8126 401.1001,38.3376 L401.1001,81.4436 C401.1001,94.2636 404.6251,101.6356 416.3231,101.6356 C424.3351,101.6356 430.7451,98.5906 435.5531,92.6616 C440.3611,86.7326 442.7641,79.5216 442.7641,71.0276 L442.7641,38.3376 C442.7641,34.8126 444.5271,33.0496 448.0521,33.0496 L453.0201,33.0496 C456.5451,33.0496 458.3081,34.8126 458.3081,38.3376 L458.3081,108.8466 C458.3081,112.3716 456.5451,114.1346 453.0201,114.1346 L448.5321,114.1346 C445.0081,114.1346 443.2441,112.3716 443.2441,108.8466 L443.2441,101.6356 L443.7251,96.9876 L443.4051,96.9876 C441.3221,101.7956 437.4761,106.1226 432.1881,110.1286 C426.9001,114.1346 420.4891,116.0576 413.2781,116.0576 C394.8501,116.0576 385.7161,106.1226 385.7161,84.9696 L385.7161,38.3376 Z" id="Fill-9" fill="#007EC5"></path>
            <g id="Group-13" transform="translate(484.000000, 31.129000)">
                <mask id="mask-6" fill="white">
                    <use xlink:href="#path-5"></use>
                </mask>
                <g id="Clip-12"></g>
                <path d="M21.261,62.9747 C25.427,68.5837 31.035,71.4677 38.086,71.4677 C51.388,71.4677 61.483,60.4107 61.483,42.6227 C61.483,25.1567 52.189,13.6187 38.568,13.6187 C25.267,13.6187 15.171,23.3937 15.171,42.7837 C15.171,50.4757 17.255,57.2057 21.261,62.9747 L21.261,62.9747 Z M0.109,7.2087 C0.109,3.6837 1.87,1.9207 5.397,1.9207 L9.082,1.9207 C12.608,1.9207 14.37,3.3627 14.37,6.4077 L14.37,11.2147 L14.05,15.5407 L14.37,15.5407 L15.331,13.7787 C15.972,12.4967 19.498,8.1697 23.184,5.4457 C27.03,2.7217 33.92,-0.0033 41.613,-0.0033 C52.349,-0.0033 61.002,3.8437 67.412,11.6957 C73.983,19.5477 77.188,29.8037 77.188,42.4627 C77.188,55.1227 73.661,65.3787 66.771,73.2307 C59.881,81.0827 51.227,84.9287 40.491,84.9287 C26.069,84.9287 18.216,75.7937 16.133,72.1087 L15.331,70.5067 L15.011,70.5067 C15.331,72.4297 15.491,74.8327 15.491,77.5577 L15.491,109.7667 C15.491,113.2927 13.729,115.0557 10.365,115.0557 L5.397,115.0557 C1.87,115.0557 0.109,113.2927 0.109,109.7667 L0.109,7.2087 Z" id="Fill-11" fill="#007EC5" mask="url(#mask-6)"></path>
            </g>
            <path d="M177.7473,101.4944 C162.5283,101.4944 150.1913,89.1574 150.1913,73.9394 C150.1913,58.7204 162.5283,46.3834 177.7473,46.3834 C192.9653,46.3834 205.3023,58.7204 205.3023,73.9394 C205.3023,89.1574 192.9653,101.4944 177.7473,101.4944 M177.7473,32.2284 C154.7113,32.2284 136.0363,50.9024 136.0363,73.9394 C136.0363,96.9754 154.7113,115.6504 177.7473,115.6504 C200.7833,115.6504 219.4583,96.9754 219.4583,73.9394 C219.4583,50.9024 200.7833,32.2284 177.7473,32.2284" id="Fill-14" fill="#007EC5"></path>
            <path d="M191.2366,86.0363 L164.2576,86.0363 C162.2346,86.0363 160.9586,83.8593 161.9466,82.0943 L175.4356,57.9933 C176.4466,56.1853 179.0476,56.1853 180.0586,57.9933 L193.5486,82.0943 C194.5356,83.8593 193.2596,86.0363 191.2366,86.0363" id="Fill-16" fill="#007EC5"></path>
            <path d="M69.1668,197.0613 C70.3658,198.7393 72.0448,199.6033 74.2028,199.6033 C78.2318,199.6033 81.2538,196.3413 81.2538,190.9693 C81.2538,185.7413 78.4718,182.2883 74.3948,182.2883 C70.4138,182.2883 67.3928,185.2123 67.3928,190.9213 C67.3928,193.3193 67.9678,195.3813 69.1668,197.0613 L69.1668,197.0613 Z M62.8838,170.7763 C62.8838,169.7203 63.4108,169.1933 64.4658,169.1933 L65.9538,169.1933 C66.9598,169.1933 67.4878,169.7203 67.4878,170.7763 L67.4878,180.6083 L67.3438,182.6703 L67.4398,182.6703 C67.5838,182.4313 67.6318,182.1433 68.5428,181.1363 C69.7908,179.7923 71.8528,178.2103 75.3538,178.2103 C78.5678,178.2103 81.1098,179.3623 83.0288,181.7113 C84.9958,184.0623 85.9548,187.0833 85.9548,190.8733 C85.9548,194.7103 84.8988,197.7803 82.8368,200.1303 C80.7738,202.4813 78.1838,203.6313 74.9708,203.6313 C71.8528,203.6313 69.4068,202.3843 67.6798,199.8423 L67.2008,199.0273 L67.1038,199.0273 C67.2008,199.4113 67.2478,199.8903 67.2478,200.4653 L67.2478,201.6653 C67.2478,202.5773 66.7208,203.0563 65.6658,203.0563 L64.4658,203.0563 C63.4108,203.0563 62.8838,202.5283 62.8838,201.4733 L62.8838,170.7763 Z" id="Fill-18" fill="#007EC5"></path>
            <g id="Group-22" transform="translate(88.000000, 178.129000)">
                <mask id="mask-8" fill="white">
                    <use xlink:href="#path-7"></use>
                </mask>
                <g id="Clip-21"></g>
                <path d="M0.7395,31.3541 C1.0275,30.7311 1.4595,30.4431 1.9875,30.4431 C2.1315,30.4431 2.3225,30.4911 2.5145,30.5391 C3.4265,30.8751 4.0495,31.0671 4.4325,31.0671 C6.3035,31.0671 7.7905,29.5321 8.6055,27.4211 L9.8055,24.6391 L0.4035,2.4791 C0.2125,1.9531 0.1645,1.5201 0.4035,1.1361 C0.6435,0.8011 1.0275,0.6571 1.6035,0.6571 L3.4735,0.6571 C4.3855,0.6571 4.9605,1.0881 5.2485,1.9041 L10.9565,16.5331 L11.8195,19.4581 L11.9155,19.4581 C12.1555,18.3561 12.4435,17.3971 12.7305,16.5821 L18.2465,1.9531 C18.5345,1.0881 19.1105,0.6571 20.0215,0.6571 L21.7485,0.6571 C22.3235,0.6571 22.7075,0.8011 22.9475,1.1361 C23.0915,1.3291 23.1395,1.5201 23.1395,1.7601 C23.1395,2.0001 23.0915,2.2401 22.9955,2.4791 L12.2995,29.1961 C10.9085,32.8891 7.8865,35.0001 4.4325,35.0001 C3.4265,35.0001 2.3225,34.7601 1.0755,34.2321 C0.4515,33.9931 0.1155,33.5611 0.1155,33.0341 C0.1155,32.7931 0.2125,32.5051 0.3565,32.1691 L0.7395,31.3541 Z" id="Fill-20" fill="#007EC5" mask="url(#mask-8)"></path>
            </g>
            <path d="M135.7488,173.3181 L125.6768,173.3181 C124.6208,173.3181 124.0938,172.7911 124.0938,171.7351 L124.0938,170.7761 C124.0938,169.7201 124.6208,169.1931 125.6768,169.1931 L150.5218,169.1931 C151.5288,169.1931 152.0568,169.7201 152.0568,170.7761 L152.0568,171.7351 C152.0568,172.7911 151.5288,173.3181 150.5218,173.3181 L140.4498,173.3181 L140.4498,201.4731 C140.4498,202.5281 139.9218,203.0561 138.8668,203.0561 L137.2838,203.0561 C136.2768,203.0561 135.7488,202.5281 135.7488,201.4731 L135.7488,173.3181 Z" id="Fill-23" fill="#007EC5"></path>
            <path d="M165.6814,173.99 C164.6264,173.99 164.0984,173.462 164.0984,172.407 L164.0984,170.728 C164.0984,169.673 164.6264,169.145 165.6814,169.145 L166.3524,169.145 C167.4084,169.145 167.9354,169.673 167.9354,170.728 L167.9354,172.407 C167.9354,173.462 167.4084,173.99 166.3524,173.99 L165.6814,173.99 Z M157.6714,173.99 C156.6164,173.99 156.0884,173.462 156.0884,172.407 L156.0884,170.728 C156.0884,169.673 156.6164,169.145 157.6714,169.145 L158.3434,169.145 C159.3974,169.145 159.9254,169.673 159.9254,170.728 L159.9254,172.407 C159.9254,173.462 159.3974,173.99 158.3434,173.99 L157.6714,173.99 Z M151.1484,180.369 C151.1484,179.313 151.6754,178.786 152.7314,178.786 L154.2184,178.786 C155.2244,178.786 155.7524,179.313 155.7524,180.369 L155.7524,193.271 C155.7524,197.108 156.8074,199.315 160.3094,199.315 C162.7074,199.315 164.6264,198.403 166.0654,196.629 C167.5044,194.854 168.2234,192.696 168.2234,190.154 L168.2234,180.369 C168.2234,179.313 168.7514,178.786 169.8064,178.786 L171.2934,178.786 C172.3484,178.786 172.8764,179.313 172.8764,180.369 L172.8764,201.473 C172.8764,202.528 172.3484,203.056 171.2934,203.056 L169.9504,203.056 C168.8954,203.056 168.3674,202.528 168.3674,201.473 L168.3674,199.315 L168.5114,197.924 L168.4154,197.924 C167.7914,199.363 166.6404,200.658 165.0574,201.857 C163.4754,203.056 161.5564,203.632 159.3974,203.632 C153.8824,203.632 151.1484,200.658 151.1484,194.327 L151.1484,180.369 Z" id="Fill-25" fill="#007EC5"></path>
            <path d="M179.594,180.3689 C179.594,179.3129 180.122,178.7859 181.177,178.7859 L182.52,178.7859 C183.575,178.7859 184.103,179.3129 184.103,180.3689 L184.103,183.1509 L183.959,184.9729 L184.055,184.9729 C185.206,181.4729 188.036,178.5949 191.49,178.5949 C192.497,178.5949 193.024,179.1219 193.024,180.1779 L193.024,181.5199 C193.024,182.5749 192.449,183.1029 191.298,183.1029 C189.043,183.1029 187.317,184.1099 186.07,186.1249 C184.87,188.0919 184.247,190.3929 184.247,193.0319 L184.247,201.4729 C184.247,202.5279 183.719,203.0559 182.664,203.0559 L181.177,203.0559 C180.122,203.0559 179.594,202.5279 179.594,201.4729 L179.594,180.3689 Z" id="Fill-27" fill="#007EC5"></path>
            <path d="M196.719,170.7761 C196.719,169.7201 197.247,169.1931 198.302,169.1931 L199.789,169.1931 C200.796,169.1931 201.324,169.7201 201.324,170.7761 L201.324,187.6591 L204.825,187.6591 L210.725,179.7931 C211.157,179.1221 211.78,178.7861 212.595,178.7861 L214.37,178.7861 C215.665,178.7861 216.096,179.6971 215.329,180.7051 L208.614,189.4821 L208.614,189.5781 L216.385,201.1371 C216.624,201.4731 216.72,201.8091 216.72,202.0481 C216.72,202.1921 216.673,202.3371 216.624,202.4811 C216.385,202.8641 215.953,203.0561 215.329,203.0561 L213.411,203.0561 C212.595,203.0561 211.972,202.6721 211.54,201.9531 L204.921,191.6881 L201.324,191.6881 L201.324,201.4731 C201.324,202.5281 200.796,203.0561 199.789,203.0561 L198.302,203.0561 C197.247,203.0561 196.719,202.5281 196.719,201.4731 L196.719,170.7761 Z" id="Fill-29" fill="#007EC5"></path>
            <path d="M221.0867,180.3689 C221.0867,179.3129 221.6147,178.7859 222.6697,178.7859 L224.1567,178.7859 C225.2117,178.7859 225.7397,179.3129 225.7397,180.3689 L225.7397,201.4729 C225.7397,202.5279 225.2117,203.0559 224.1567,203.0559 L222.6697,203.0559 C221.6147,203.0559 221.0867,202.5279 221.0867,201.4729 L221.0867,180.3689 Z M222.6217,173.9419 C221.5667,173.9419 221.0397,173.4139 221.0397,172.3589 L221.0397,170.7759 C221.0397,169.7209 221.5667,169.1929 222.6217,169.1929 L224.2527,169.1929 C225.3077,169.1929 225.8357,169.7209 225.8357,170.7759 L225.8357,172.3589 C225.8357,173.4139 225.3077,173.9419 224.2527,173.9419 L222.6217,173.9419 Z" id="Fill-31" fill="#007EC5"></path>
            <g id="Group-35" transform="translate(229.000000, 178.129000)">
                <mask id="mask-10" fill="white">
                    <use xlink:href="#path-9"></use>
                </mask>
                <g id="Clip-34"></g>
                <path d="M1.1057,31.3541 C1.3937,30.7311 1.8247,30.4431 2.3527,30.4431 C2.4967,30.4431 2.6887,30.4911 2.8807,30.5391 C3.7917,30.8751 4.4157,31.0671 4.7987,31.0671 C6.6697,31.0671 8.1567,29.5321 8.9717,27.4211 L10.1707,24.6391 L0.7697,2.4791 C0.5777,1.9531 0.5307,1.5201 0.7697,1.1361 C1.0097,0.8011 1.3937,0.6571 1.9697,0.6571 L3.8397,0.6571 C4.7517,0.6571 5.3267,1.0881 5.6147,1.9041 L11.3217,16.5331 L12.1857,19.4581 L12.2817,19.4581 C12.5217,18.3561 12.8097,17.3971 13.0967,16.5821 L18.6127,1.9531 C18.9007,1.0881 19.4767,0.6571 20.3877,0.6571 L22.1147,0.6571 C22.6897,0.6571 23.0737,0.8011 23.3137,1.1361 C23.4577,1.3291 23.5047,1.5201 23.5047,1.7601 C23.5047,2.0001 23.4577,2.2401 23.3617,2.4791 L12.6657,29.1961 C11.2737,32.8891 8.2517,35.0001 4.7987,35.0001 C3.7917,35.0001 2.6887,34.7601 1.4417,34.2321 C0.8177,33.9931 0.4817,33.5611 0.4817,33.0341 C0.4817,32.7931 0.5777,32.5051 0.7217,32.1691 L1.1057,31.3541 Z" id="Fill-33" fill="#007EC5" mask="url(#mask-10)"></path>
            </g>
            <path d="M272.7971,188.3308 C272.6531,184.1578 270.2071,181.8548 266.8981,181.8548 C263.3001,181.8548 260.4221,184.3018 259.7991,188.3308 L272.7971,188.3308 Z M258.2641,181.7118 C260.5661,179.3618 263.4921,178.2108 266.9941,178.2108 C270.3031,178.2108 272.8451,179.2658 274.6681,181.4238 C276.5381,183.5348 277.4491,186.3168 277.4491,189.7698 C277.4491,190.6818 276.7781,191.4008 275.8191,191.4008 L259.6071,191.4008 C259.7511,193.9428 260.6141,195.9568 262.1971,197.4438 C263.7801,198.8838 265.7461,199.6028 268.0011,199.6028 C270.1591,199.6028 272.0781,198.9788 273.8041,197.6848 C274.1401,197.4918 274.4761,197.3958 274.7641,197.3958 C275.2921,197.3958 275.6751,197.6848 275.9631,198.2118 L276.3951,198.9318 C276.6341,199.2678 276.7301,199.6028 276.7301,199.8908 C276.7301,200.3218 276.4431,200.7058 275.9151,201.0418 C273.4681,202.7688 270.7341,203.6318 267.7131,203.6318 C263.9241,203.6318 260.8541,202.4328 258.4561,200.0348 C256.0571,197.5878 254.8581,194.5658 254.8581,190.9218 C254.8581,187.1328 256.0091,184.0618 258.2641,181.7118 L258.2641,181.7118 Z" id="Fill-36" fill="#007EC5"></path>
            <path d="M297.4075,165.4519 C296.3515,165.4519 295.8245,164.9249 295.8245,163.8689 L295.8245,162.3339 C295.8245,161.2789 296.3515,160.7509 297.4075,160.7509 L298.4145,160.7509 C299.4705,160.7509 299.9975,161.2789 299.9975,162.3339 L299.9975,163.8689 C299.9975,164.9249 299.4705,165.4519 298.4145,165.4519 L297.4075,165.4519 Z M295.4885,170.7759 C295.4885,169.7209 296.0165,169.1929 297.0715,169.1929 L298.6065,169.1929 C299.6615,169.1929 300.1895,169.7209 300.1895,170.7759 L300.1895,201.4729 C300.1895,202.5279 299.6615,203.0559 298.6065,203.0559 L297.0715,203.0559 C296.0165,203.0559 295.4885,202.5279 295.4885,201.4729 L295.4885,170.7759 Z" id="Fill-38" fill="#007EC5"></path>
            <path d="M313.1419,203.5359 C310.6479,203.2969 308.4409,202.4319 306.5229,200.9939 C305.7069,200.4659 305.6109,199.7469 306.1869,198.8349 L306.6659,198.1639 C307.1939,197.4439 307.9609,197.3009 308.8729,197.8279 C310.8869,199.1229 312.8539,199.7949 314.8209,199.7949 C317.2669,199.7949 318.9459,198.6429 318.9459,196.5809 C318.9459,194.8539 316.9789,193.7029 314.4849,192.8879 C310.9839,191.6879 306.3779,189.9619 306.4259,185.2129 C306.4259,183.0069 307.2429,181.2799 308.9199,180.0819 C310.5999,178.8339 312.7099,178.2109 315.2049,178.2109 C317.6989,178.2109 319.9529,178.8339 321.9189,180.0819 C322.8299,180.5129 322.9749,181.2319 322.4469,182.1909 L322.0149,182.9109 C321.5829,183.7259 320.8639,183.8709 319.9049,183.4389 C318.2739,182.5269 316.6429,182.0479 314.9639,182.0479 C312.5179,182.0479 310.8869,183.1509 310.8869,185.1169 C310.8869,186.8439 312.8539,188.0439 315.2999,188.8589 C318.8979,190.0569 323.4069,191.6399 323.4069,196.4849 C323.4069,200.3219 320.3359,203.1999 315.7319,203.5839 L315.3479,205.4549 C317.4109,205.6939 318.8019,206.9899 318.8019,208.9559 C318.8019,211.6899 316.6429,212.9849 313.9089,212.9849 C312.2309,212.9849 311.4149,212.5059 311.4149,211.5949 C311.4149,210.6349 311.7029,210.1549 312.2779,210.1549 C312.5179,210.1549 313.1419,210.2989 313.5259,210.2989 C314.9159,210.2989 315.5879,209.7709 315.5879,208.7639 C315.5879,207.9009 314.8209,207.3729 313.3329,207.2289 C312.5659,207.1819 312.3269,206.7009 312.5659,205.8859 L313.1419,203.5359 Z" id="Fill-40" fill="#007EC5"></path>
            <path d="M346.2884,198.9314 L353.9154,198.9314 C357.5604,198.9314 359.7674,196.6284 359.7674,193.1754 C359.7674,189.7214 357.4164,187.3714 353.9154,187.3714 L346.2884,187.3714 L346.2884,198.9314 Z M346.2884,183.4394 L353.4354,183.4394 C356.4574,183.4394 358.4234,181.3274 358.4234,178.3064 C358.4234,175.2844 356.5534,173.3184 353.3394,173.3184 L346.2884,173.3184 L346.2884,183.4394 Z M341.5884,170.7764 C341.5884,169.7204 342.1154,169.1934 343.1714,169.1934 L353.4354,169.1934 C359.2384,169.1934 363.2204,172.4544 363.2204,177.8274 C363.2204,181.0884 361.6844,183.7744 359.0474,185.1174 L359.0474,185.2124 C362.5004,186.2204 364.6114,189.5304 364.6114,193.4144 C364.6114,196.4854 363.5564,198.8834 361.4934,200.5624 C359.4314,202.2414 356.8414,203.0564 353.6754,203.0564 L343.1714,203.0564 C342.1154,203.0564 341.5884,202.5284 341.5884,201.4734 L341.5884,170.7764 Z" id="Fill-42" fill="#007EC5"></path>
            <path d="M377.468,199.9382 C379.387,199.9382 380.97,199.1232 382.168,197.5412 C383.415,195.9572 384.039,194.1822 384.039,192.2162 L384.039,191.1612 L382.792,191.1612 C376.221,191.1612 372.959,192.7922 372.959,196.0532 C372.959,198.1642 374.638,199.9382 377.468,199.9382 M371.857,190.2502 C372.864,189.6742 374.111,189.2422 375.502,188.9062 C378.331,188.1872 380.298,188.0912 382.744,188.0912 L383.991,188.0912 L383.991,187.4672 C383.991,183.9182 382.217,182.1432 378.715,182.1432 C376.893,182.1432 375.071,182.6702 373.247,183.6782 C372.911,183.8222 372.624,183.9182 372.336,183.9182 C371.809,183.9182 371.424,183.6302 371.089,183.1032 L370.705,182.4312 C370.513,182.0952 370.417,181.7592 370.417,181.4722 C370.417,180.9442 370.705,180.5612 371.233,180.2732 C373.679,178.8812 376.269,178.2102 379.099,178.2102 C385.191,178.2102 388.644,181.5682 388.644,187.7082 L388.644,201.4732 C388.644,202.5282 388.116,203.0562 387.062,203.0562 L385.862,203.0562 C384.807,203.0562 384.28,202.5282 384.28,201.4732 L384.28,200.0352 L384.423,198.5472 L384.327,198.5472 L384.039,199.1232 C383.8,199.5542 382.744,200.9462 381.642,201.8572 C380.537,202.7682 378.524,203.6312 376.413,203.6312 C374.158,203.6312 372.24,202.9602 370.657,201.6662 C369.074,200.3702 368.259,198.5952 368.259,196.4372 C368.259,193.5592 369.89,191.3522 371.857,190.2502" id="Fill-44" fill="#007EC5"></path>
            <path d="M395.0257,180.3689 C395.0257,179.3129 395.5537,178.7859 396.6087,178.7859 L397.9527,178.7859 C399.0067,178.7859 399.5347,179.3129 399.5347,180.3689 L399.5347,182.5269 L399.3907,183.9189 L399.4867,183.9189 C400.1107,182.5269 401.2127,181.2319 402.7967,180.0329 C404.3797,178.8339 406.3457,178.2109 408.6967,178.2109 C414.2127,178.2109 416.9937,181.3279 416.9937,187.5149 L416.9937,201.4729 C416.9937,202.5279 416.4657,203.0559 415.4117,203.0559 L413.9237,203.0559 C412.8697,203.0559 412.3407,202.5279 412.3407,201.4729 L412.3407,188.5709 C412.3407,184.6859 411.3817,182.4789 407.7847,182.4789 C405.4337,182.4789 403.5157,183.3429 401.9807,185.0689 C400.4457,186.7969 399.6787,188.9059 399.6787,191.4489 L399.6787,201.4729 C399.6787,202.5279 399.1507,203.0559 398.0957,203.0559 L396.6087,203.0559 C395.5537,203.0559 395.0257,202.5279 395.0257,201.4729 L395.0257,180.3689 Z" id="Fill-46" fill="#007EC5"></path>
            <path d="M423.4241,170.7761 C423.4241,169.7201 423.9511,169.1931 425.0071,169.1931 L426.4941,169.1931 C427.5011,169.1931 428.0281,169.7201 428.0281,170.7761 L428.0281,187.6591 L431.5301,187.6591 L437.4301,179.7931 C437.8621,179.1221 438.4861,178.7861 439.3011,178.7861 L441.0751,178.7861 C442.3701,178.7861 442.8021,179.6971 442.0341,180.7051 L435.3191,189.4821 L435.3191,189.5781 L443.0901,201.1371 C443.3291,201.4731 443.4251,201.8091 443.4251,202.0481 C443.4251,202.1921 443.3771,202.3371 443.3291,202.4811 C443.0901,202.8641 442.6581,203.0561 442.0341,203.0561 L440.1161,203.0561 C439.3011,203.0561 438.6771,202.6721 438.2451,201.9531 L431.6261,191.6881 L428.0281,191.6881 L428.0281,201.4731 C428.0281,202.5281 427.5011,203.0561 426.4941,203.0561 L425.0071,203.0561 C423.9511,203.0561 423.4241,202.5281 423.4241,201.4731 L423.4241,170.7761 Z" id="Fill-48" fill="#007EC5"></path>
            <path d="M455.0345,199.9382 C456.9535,199.9382 458.5365,199.1232 459.7345,197.5412 C460.9815,195.9572 461.6055,194.1822 461.6055,192.2162 L461.6055,191.1612 L460.3585,191.1612 C453.7875,191.1612 450.5255,192.7922 450.5255,196.0532 C450.5255,198.1642 452.2045,199.9382 455.0345,199.9382 M449.4225,190.2502 C450.4305,189.6742 451.6775,189.2422 453.0685,188.9062 C455.8975,188.1872 457.8645,188.0912 460.3105,188.0912 L461.5575,188.0912 L461.5575,187.4672 C461.5575,183.9182 459.7835,182.1432 456.2815,182.1432 C454.4595,182.1432 452.6365,182.6702 450.8135,183.6782 C450.4775,183.8222 450.1905,183.9182 449.9025,183.9182 C449.3755,183.9182 448.9905,183.6302 448.6555,183.1032 L448.2715,182.4312 C448.0795,182.0952 447.9835,181.7592 447.9835,181.4722 C447.9835,180.9442 448.2715,180.5612 448.7995,180.2732 C451.2455,178.8812 453.8355,178.2102 456.6655,178.2102 C462.7575,178.2102 466.2105,181.5682 466.2105,187.7082 L466.2105,201.4732 C466.2105,202.5282 465.6825,203.0562 464.6285,203.0562 L463.4285,203.0562 C462.3735,203.0562 461.8465,202.5282 461.8465,201.4732 L461.8465,200.0352 L461.9895,198.5472 L461.8935,198.5472 L461.6055,199.1232 C461.3665,199.5542 460.3105,200.9462 459.2075,201.8572 C458.1035,202.7682 456.0905,203.6312 453.9795,203.6312 C451.7245,203.6312 449.8065,202.9602 448.2235,201.6662 C446.6405,200.3702 445.8255,198.5952 445.8255,196.4372 C445.8255,193.5592 447.4565,191.3522 449.4225,190.2502" id="Fill-50" fill="#007EC5"></path>
            <path d="M470.9134,199.8904 C470.9134,199.5544 471.0574,199.2194 471.2974,198.8344 L471.7764,198.1634 C472.1124,197.7324 472.4964,197.4924 472.9284,197.4924 C473.2644,197.4924 473.6004,197.5874 473.9834,197.8274 C475.9984,199.1224 477.9644,199.7944 479.9314,199.7944 C482.3774,199.7944 484.0564,198.6434 484.0564,196.5804 C484.0564,194.8544 482.0894,193.7034 479.5954,192.8874 C476.0944,191.6884 471.4894,189.9614 471.5374,185.2124 C471.5374,183.0064 472.3524,181.2804 474.0314,180.0814 C475.7104,178.8334 477.8204,178.2104 480.3144,178.2104 C482.8094,178.2104 485.0624,178.8334 487.0294,180.0814 C487.5574,180.3694 487.8454,180.7524 487.8454,181.2324 C487.8454,181.5204 487.7494,181.8554 487.5574,182.1914 L487.1254,182.9114 C486.8384,183.4394 486.4544,183.6784 485.9274,183.6784 C485.6864,183.6784 485.3514,183.5824 485.0154,183.4394 C483.3844,182.5274 481.7544,182.0474 480.0744,182.0474 C477.6284,182.0474 475.9984,183.1514 475.9984,185.1174 C475.9984,186.8434 477.9644,188.0434 480.4104,188.8594 C484.0084,190.0574 488.5174,191.6404 488.5174,196.4854 C488.5174,198.5474 487.7014,200.2744 486.0704,201.6174 C484.4874,202.9604 482.3774,203.6314 479.7874,203.6314 C476.6694,203.6314 473.9834,202.7684 471.6334,200.9944 C471.1534,200.7054 470.9134,200.3224 470.9134,199.8904" id="Fill-52" fill="#007EC5"></path>
            <path d="M493.6507,180.3689 C493.6507,179.3129 494.1787,178.7859 495.2337,178.7859 L496.7207,178.7859 C497.7767,178.7859 498.3037,179.3129 498.3037,180.3689 L498.3037,201.4729 C498.3037,202.5279 497.7767,203.0559 496.7207,203.0559 L495.2337,203.0559 C494.1787,203.0559 493.6507,202.5279 493.6507,201.4729 L493.6507,180.3689 Z" id="Fill-54" fill="#007EC5"></path>
        </g>
    </g>
</svg>